<?xml version="1.0" encoding="UTF-8"?>
<svg id="Layer_2" data-name="Layer 2" xmlns="http://www.w3.org/2000/svg" viewBox="0 0 283.05 283.05">
  <defs>
    <style>
      .cls-1 {
        fill: none;
      }

      .cls-1, .cls-2 {
        stroke-width: 0px;
      }
    </style>
  </defs>
  <g id="Layer_1-2" data-name="Layer 1">
    <g>
      <path class="cls-1" d="m154.12,67.81c-1.06.04-2.13-.39-3.62-.69.85-.78,1.3-1.19,1.75-1.6-.21-.48-.42-.96-.63-1.43-1.26.76-3.21,1.23-3.65,2.32-1.81,4.5,1.9,9.73,9.52,13.64.73-1.85,1.64-3.61,2.15-5.49,1.91-7.04,1.86-7.02-5.53-6.75Z"/>
      <path class="cls-1" d="m122.77,222.92c-.82-3.63-1.93-8.21-2.75-12.07h-.23c-.82,3.87-1.82,8.44-2.64,12.07l-.61,2.64h6.85l-.61-2.64Z"/>
      <path class="cls-1" d="m81.22,211.43v21.92h.35c4.86,0,8.79-2.23,8.79-11.14s-3.93-10.78-8.79-10.78h-.35Z"/>
      <path class="cls-1" d="m193.09,222.92c-.82-3.63-1.93-8.21-2.75-12.07h-.23c-.82,3.87-1.82,8.44-2.64,12.07l-.61,2.64h6.84l-.61-2.64Z"/>
      <path class="cls-1" d="m153.46,93.96c1.99-3.47,3.75-6.54,5.5-9.61-8.33,3.52-8.62,4.05-5.5,9.61Z"/>
      <path class="cls-1" d="m132.93,86.6h12.61c.03-.46.05-.92.08-1.38-4.21-.4-8.42-.8-12.63-1.19-.02.86-.04,1.71-.05,2.57Z"/>
      <path class="cls-2" d="m172.87,241.44h10.32l1.87-8.09h10.45l1.87,8.09h10.67l-11.49-38.1h-12.19l-11.49,38.1Zm14.59-18.52c.82-3.63,1.82-8.21,2.64-12.07h.23c.82,3.87,1.93,8.44,2.75,12.07l.61,2.64h-6.84l.61-2.64Z"/>
      <path class="cls-2" d="m233.33,203.91c.71-.12,1.43-.23,2.14-.35-.46-3.34-.92-6.68-1.38-10.02-.56.07-1.12.14-1.68.21.3,3.38.61,6.77.91,10.15Z"/>
      <path class="cls-2" d="m38.48,189.91c1.54-.08,3.49-.26,5.45-.27,25.17-.13,50.34-.36,75.5-.3,35.67.08,71.35.4,107.02.6,6.15.03,6.77-.57,5.63-6.63-1.35-7.19-3.34-14.28-4.46-21.51-1-6.4-3.66-11.03-9.62-14.08-13.93-7.12-28.08-13.95-41.42-22.08-14.25-8.7-16.12-23.71-6.37-37.08,4.27-5.85,6.36-11.78,7.51-18.61.6-3.57,2.35-6.97,3.77-10.37,2.22-5.29,6.85-10.66,6.51-15.73-1.1-16.41-8.32-30.13-23.52-38.16-11.02-5.82-22.77-5.19-34.63-2.76-22.16,4.53-39.39,31.39-22.23,52.94.94,1.18,1.57,3.02,1.48,4.5-.13,2.13-3.56,4.13.73,6.19,1.92.92,2.93,3.75,5.13,6.78,0-5.78-.15-9.91.05-14.03.13-2.68,1.71-3.87,4.46-2.94-1.08,2.68,4.73,2.13,2.56,5.4-.07.11.84,1.27,1.22,1.23,4.81-.52,10.05,2.36,14.35-1.3-.49-6.76-5.9-6.73-10.93-7.64,7.55-5.72,21.6-4.63,26.1,1.49-.6.31-1.16.83-1.74.85-5.05.19-7.04,2.92-6.92,7.77.05,2.32-.49,4.64-.56,6.96-.1,3.55-1.11,5.53-5.19,4.02-1.06-.39-2.42.06-4.38.17,3.78,2.46,6.63,4.31,9.48,6.16-.16.41-.31.81-.47,1.22h-17.92c4.65,3.32,7.63,7.06,13.11,5.83,1.23-.27,3.21.91,4.23,1.99,2.3,2.44,4.21,5.25,6.99,8.81-3.28,1.98-6.25,5.05-9.63,5.59-9.6,1.53-14.58-6.12-20.66-12.7-.12,5.84,1.74,9.85,5.24,13.21,3.01,2.88,6.19,5.62,8.92,8.75,1.63,1.88,2.96,4.28,3.65,6.67,1.13,3.86,3.65,5.21,7.35,3.36,2.83-1.41,5.59-3.22,8.6-3.9,2.78-.63,5.85,0,8.79.07-.4,2.25-.8,4.5-1.2,6.75-.06.33-.14.65-.21.97,1.28,1.61,2.15,3.45,1.77,4.98-1.92,7.75-3.93,15.49-6.37,23.09-2.15,6.69-4.9,13.18-7.34,19.62-1.68-7.45-2.79-14.82-5.05-21.83-2.82-8.71-2.73-10.59,4.24-16.54-2.23-7-5.15-10.37-10.14-9.69-6.98.95-8.22,8-11.53,12.89,1.43-.77,2.85-1.54,5.67-3.06.37,3.04,1.43,5.61.78,7.64-2.19,6.92-4.99,13.64-7.61,20.59-.6-1.68-1.4-3.49-1.91-5.38-2.58-9.65-4.87-19.38-7.66-28.97-2.49-8.55-3.99-16.85,1.41-24.88.21-.31.03-.89.03-1.34-.34-.26-.68-.51-1.02-.77-1.97,2.24-3.79,4.64-5.94,6.68-3.21,3.04-6.22,6.79-10.08,8.51-8.79,3.91-18.1,6.62-27.1,10.09-6.98,2.69-14.36,4.94-20.54,8.96-6.84,4.45-6.01,13.36-8.23,20.33-4.71,14.78-8.5,29.87-12.83,45.45,11.07-1.46,4.34-9.96,7.68-14.6Zm107.06-103.3h-12.61c.02-.86.04-1.71.05-2.57,4.21.4,8.42.8,12.63,1.19-.03.46-.05.92-.08,1.38Zm7.92,7.36c-3.11-5.56-2.83-6.09,5.5-9.61-1.76,3.07-3.51,6.14-5.5,9.61Zm6.19-19.4c-.51,1.87-1.41,3.64-2.15,5.49-7.63-3.92-11.34-9.14-9.52-13.64.44-1.09,2.39-1.56,3.65-2.32.21.48.42.96.63,1.43-.45.41-.9.82-1.75,1.6,1.49.3,2.56.73,3.62.69,7.39-.27,7.44-.29,5.53,6.75Zm-15.37-52.6c-12.23,0-23.51,5.18-28.77,10.93-6.49,7.09-6.2,14.48-6.2,14.48,0,0-1.77-10.64,3.55-16.25s16.48-12.7,31.43-11.82c14.96.89,26.18,7.02,30.32,14,4.14,6.98,3.25,16.44,3.25,16.44,0,0-.3-8.35-5.91-15.25-5.61-6.91-15.43-12.52-27.66-12.52Z"/>
      <path class="cls-2" d="m199.08,274.3c-.82,2.91-1.65,5.83-2.47,8.74h18.01c-2.55-1.54-5.06-3.13-7.66-4.59-2.59-1.46-5.26-2.77-7.89-4.15Z"/>
      <path class="cls-2" d="m27.49,222.68c7.35-1.28,14.39-2.51,22.47-3.92-5.58-3.14-20-.33-22.47,3.92Z"/>
      <path class="cls-2" d="m242.57,232.95c.26-6.54,1.43-13.12.92-19.58-.4-5.02-5.77-8.44-8.61-6.74-2.74,1.63-5.35,3.48-8.07,5.26,2.75.26,5.7.43,8.62.86,2.11.31,5.4-.31,4.91,3.33-.55,4.07-3.89,1.77-6.06,2.03-.62.08-1.28-.35-1.94-.39-3.21-.21-6.41-.37-9.62-.55l.02,1.36c4.7.89,9.45,1.62,14.08,2.78,1.25.32,2.17,1.96,3.24,2.99-1.5.7-2.95,1.78-4.52,1.97-1.16.15-2.43-1.13-3.71-1.28-2.06-.24-4.16-.06-6.25-.06l-.04,1.35c3.31,1.07,7.84-.07,10.1,5.25-2.35-.43-3.6-.65-5.38-.98,5.89,7.74,2.2,15.8,3.47,24.01-3.08,0-5.22.04-7.37,0-4.16-.08-7.7-.03-10.93,4.05-1.84,2.33-6.4,4.67-10.55,2.43,3.28-1.71,6.45-3.37,10.45-5.46H50.21c-.14.48-.28.97-.42,1.45,2.17,1.87,4.34,3.75,6.51,5.62-.14.26-.28.53-.42.79-5.58-2.95-11.15-5.9-18.06-9.55,0-4.36-.55-10.38.32-16.18.28-1.86,4.3-3.16,7.61-5.4-5.25,1.15-9.43,2.07-13.65,3,.45-4.55,6.17-8.33,11.76-8.16,1.39.04,2.8-.46,4.21-.71-.17-.69-.34-1.37-.5-2.06-3.59.87-7.39,1.25-10.7,2.74-3.93,1.76-7.39,2.59-10.87-.71-.82,4.03-.84,8.11-2.45,11.43-7.49,15.5,5.46,36.11,23.22,39.14,5.56.95,10.22-.56,13.47-5.49,1.24-1.88,2.63-3.65,3.95-5.48.3.16.6.32.91.48-.86,5.51-1.73,11.02-2.59,16.53h134.1c.82-2.91,1.65-5.83,2.47-8.74,2.63,1.38,5.3,2.7,7.89,4.15,2.59,1.46,5.11,3.05,7.66,4.59h14.01c.5-.43.96-.92,1.51-1.27,11.34-7.3,14.6-16.34,12.25-29.63-1.1-6.2-.08-12.8.17-19.2Z"/>
      <path class="cls-2" d="m102.55,241.44h10.31l1.87-8.09h10.45l1.87,8.09h10.67l-11.49-38.1h-12.19l-11.49,38.1Zm14.59-18.52c.82-3.63,1.82-8.21,2.64-12.07h.23c.82,3.87,1.93,8.44,2.75,12.07l.61,2.64h-6.85l.61-2.64Z"/>
      <polygon class="cls-2" points="160.34 241.44 160.34 211.78 171.3 211.78 171.3 203.35 139.3 203.35 139.3 211.78 150.26 211.78 150.26 241.44 160.34 241.44"/>
      <path class="cls-2" d="m28.99,212.22c5.87-.51,11.12-.96,16.36-1.41-7.05-2.65-12.76-2.03-16.36,1.41Z"/>
      <path class="cls-2" d="m71.14,203.35v38.1h11.55c10.32,0,17.99-5.74,17.99-19.22s-7.68-18.87-18.58-18.87h-10.96Zm19.22,18.87c0,8.91-3.93,11.14-8.79,11.14h-.35v-21.92h.35c4.86,0,8.79,1.88,8.79,10.78Z"/>
      <rect class="cls-1" width="283.05" height="283.05"/>
    </g>
  </g>
</svg>